<svg xmlns="http://www.w3.org/2000/svg">
  <defs>
    <symbol id="icon-token" viewBox="0 0 32 32">
      <circle cx="16" cy="16" r="13" fill="#F2A20C" stroke="#28221F" stroke-width="2.4"/>
      <circle cx="16" cy="16" r="10.4" fill="#FFC83D" stroke="#A76405" stroke-width="1.6"/>
      <path d="M7 8.2c1.8-2.6 5.1-4.2 8.9-4.2 4.4 0 8 2 9.7 5.1-2.7-1.8-5.9-2.8-9.7-2.8-3.4 0-6.4.7-8.9 1.9Z" fill="#FFF48A" opacity=".9"/>
      <path d="M9 15.3c.5-3.5 3-5.3 7-5.3s6.5 1.8 7 5.3H9Z" fill="#F4A51A" stroke="#5B3105" stroke-width="1.45" stroke-linejoin="round"/>
      <path d="M8.7 16h14.6l-1.8 2.3H10.5L8.7 16Z" fill="#FFE052" stroke="#5B3105" stroke-width="1.2" stroke-linejoin="round"/>
      <path d="M10 18.2h12v2.3H10z" fill="#704019" stroke="#5B3105" stroke-width="1.2"/>
      <path d="M9.6 20.5h12.8c-.2 2-1.8 3-3.8 3h-5.2c-2 0-3.6-1-3.8-3Z" fill="#F4A51A" stroke="#5B3105" stroke-width="1.45" stroke-linejoin="round"/>
      <path d="m12 13.2.9-.6M15.9 12.3v-.7M20 13.2l-.9-.6" stroke="#FFF3D6" stroke-width="1.2" stroke-linecap="round"/>
      <path d="M21.8 8.8 23 11l2.1-2-.4 3h2.1l-1.7 1.5" fill="#FFE052" stroke="#5B3105" stroke-width=".9" stroke-linejoin="round"/>
    </symbol>
    <symbol id="icon-crown" viewBox="0 0 32 32">
      <path d="M6 24h20v4H6z" fill="#FFC83D" stroke="#28221F" stroke-width="2.4" stroke-linejoin="round"/>
      <path d="M7.5 23 5.5 9l7 6 3.5-10 3.5 10 7-6-2 14H7.5Z" fill="#FFE052" stroke="#28221F" stroke-width="2.4" stroke-linejoin="round"/>
      <circle cx="5.5" cy="9" r="2.4" fill="#FFF48A" stroke="#28221F" stroke-width="1.6"/>
      <circle cx="16" cy="5" r="2.4" fill="#FFF48A" stroke="#28221F" stroke-width="1.6"/>
      <circle cx="26.5" cy="9" r="2.4" fill="#FFF48A" stroke="#28221F" stroke-width="1.6"/>
    </symbol>
    <symbol id="icon-burger" viewBox="0 0 32 32">
      <path d="M6 14c.6-5.5 4.2-8.5 10-8.5s9.4 3 10 8.5H6Z" fill="#D99A55" stroke="#28221F" stroke-width="2.5" stroke-linejoin="round"/>
      <path d="M5 15h22l-2.5 4H7.5L5 15Z" fill="#5E9E45" stroke="#28221F" stroke-width="2" stroke-linejoin="round"/>
      <path d="M7.5 19h17v4h-17z" fill="#633B2A" stroke="#28221F" stroke-width="2"/>
      <path d="M6.5 23h19c0 3-2.3 4.5-5 4.5h-9c-2.7 0-5-1.5-5-4.5Z" fill="#D99A55" stroke="#28221F" stroke-width="2.5"/>
      <path d="m11 10 1.5-1M16 8.5v-1M21 10l-1.5-1" stroke="#FFF3D6" stroke-width="1.5" stroke-linecap="round"/>
    </symbol>
    <symbol id="icon-crate" viewBox="0 0 32 32">
      <path d="M5 8h22v19H5z" fill="#5E9E45" stroke="#28221F" stroke-width="3"/>
      <path d="M5 12h22M10 8v19M22 8v19M6 25 26 10M26 25 6 10" fill="none" stroke="#E69A17" stroke-width="2.5"/>
      <path d="M11 5h10v6H11z" fill="#D93A2F" stroke="#28221F" stroke-width="2"/>
    </symbol>
    <symbol id="icon-pause" viewBox="0 0 32 32"><rect x="8" y="6" width="6" height="20" rx="2" fill="currentColor"/><rect x="18" y="6" width="6" height="20" rx="2" fill="currentColor"/></symbol>
    <symbol id="icon-reset" viewBox="0 0 32 32"><path d="M9 10a10 10 0 1 1-2.5 9.7" fill="none" stroke="currentColor" stroke-width="4" stroke-linecap="round"/><path d="M3.5 7.5 11 8l-3 7" fill="currentColor"/></symbol>
    <symbol id="icon-back" viewBox="0 0 32 32"><path d="m18 7-9 9 9 9M10 16h15" fill="none" stroke="currentColor" stroke-width="4" stroke-linecap="round" stroke-linejoin="round"/></symbol>
    <symbol id="icon-close" viewBox="0 0 32 32"><path d="m8 8 16 16M24 8 8 24" fill="none" stroke="currentColor" stroke-width="4" stroke-linecap="round"/></symbol>
    <symbol id="icon-up" viewBox="0 0 32 32"><path d="m16 6 10 12h-6v8h-8v-8H6L16 6Z" fill="currentColor"/></symbol>
    <symbol id="icon-down" viewBox="0 0 32 32"><path d="m16 26-10-12h6V6h8v8h6L16 26Z" fill="currentColor"/></symbol>
    <symbol id="icon-left" viewBox="0 0 32 32"><path d="M6 16 18 6v6h8v8h-8v6L6 16Z" fill="currentColor"/></symbol>
    <symbol id="icon-right" viewBox="0 0 32 32"><path d="m26 16-12 10v-6H6v-8h8V6l12 10Z" fill="currentColor"/></symbol>
    <symbol id="icon-jump" viewBox="0 0 32 32"><path d="M5 23c7 0 8-14 15-14 3 0 5 2 7 5" fill="none" stroke="currentColor" stroke-width="3" stroke-linecap="round"/><path d="m22 8 6 6-8 1" fill="currentColor"/><path d="M7 26h18" stroke="currentColor" stroke-width="3" stroke-linecap="round"/></symbol>
    <symbol id="icon-boost" viewBox="0 0 32 32"><path d="M18 3c3 5 7 8 7 15a9 9 0 0 1-18 0c0-4 2-7 5-10-.2 4 1.2 6 3 7-.4-5 1-8 3-12Z" fill="#D93A2F" stroke="#28221F" stroke-width="2" stroke-linejoin="round"/><path d="M16 15c2 2 3 4 3 6a3.5 3.5 0 0 1-7 0c0-2 1-4 4-6Z" fill="#FFC83D"/></symbol>
    <symbol id="icon-star" viewBox="0 0 32 32"><path d="m16 3 4 8 9 1.3-6.5 6.3L24 28l-8-4.4L8 28l1.5-9.4L3 12.3 12 11l4-8Z" fill="#FFC83D" stroke="#28221F" stroke-width="2.5" stroke-linejoin="round"/></symbol>
    <symbol id="icon-shop" viewBox="0 0 32 32"><path d="M5 13h22v15H5z" fill="#FFF3D6" stroke="#28221F" stroke-width="2.5"/><path d="M4 12 7 5h18l3 7" fill="#D93A2F" stroke="#28221F" stroke-width="2.5" stroke-linejoin="round"/><path d="M8 12c0 3 5 3 5 0 0 3 6 3 6 0 0 3 5 3 5 0" fill="#FFF3D6" stroke="#28221F" stroke-width="2.5"/><path d="M13 19h7v9h-7z" fill="#28221F"/>
    </symbol>
    <symbol id="icon-music" viewBox="0 0 32 32"><path d="M13 7v16M13 9l12-3v14" fill="none" stroke="currentColor" stroke-width="3" stroke-linecap="round"/><circle cx="9" cy="24" r="5" fill="currentColor"/><circle cx="21" cy="21" r="5" fill="currentColor"/></symbol>
    <symbol id="icon-hat" viewBox="0 0 32 32"><path d="M9 21V12c0-5 3-8 7-8s7 3 7 8v9" fill="#D93A2F" stroke="#28221F" stroke-width="2.5"/><path d="M4 21h24c0 4-4 5-8 5H4v-5Z" fill="#D93A2F" stroke="#28221F" stroke-width="2.5" stroke-linejoin="round"/></symbol>
    <symbol id="icon-glasses" viewBox="0 0 32 32"><path d="M3 12h8l2 8H7l-4-8Zm26 0h-8l-2 8h6l4-8ZM12 14h8" fill="none" stroke="currentColor" stroke-width="3" stroke-linejoin="round"/></symbol>
    <symbol id="icon-board" viewBox="0 0 32 32"><path d="M4 13c2-4 6-5 12-5s10 1 12 5v4c-2 4-6 5-12 5S6 21 4 17v-4Z" fill="#D93A2F" stroke="#28221F" stroke-width="2.5"/><circle cx="10" cy="25" r="2.5" fill="#FFC83D" stroke="#28221F"/><circle cx="22" cy="25" r="2.5" fill="#FFC83D" stroke="#28221F"/></symbol>
    <symbol id="icon-wheel" viewBox="0 0 32 32"><circle cx="16" cy="16" r="11" fill="#FFC83D" stroke="#28221F" stroke-width="3"/><circle cx="16" cy="16" r="4" fill="#FFF3D6" stroke="#28221F" stroke-width="2"/></symbol>
    <symbol id="icon-trail" viewBox="0 0 32 32"><path d="M5 21c5-9 11-11 22-10M5 26c7-7 12-8 22-7" fill="none" stroke="#D93A2F" stroke-width="3" stroke-linecap="round"/><path d="M4 13h4M12 7l2 3M21 5v4" stroke="#FFC83D" stroke-width="3" stroke-linecap="round"/></symbol>
    <symbol id="icon-lock" viewBox="0 0 32 32"><rect x="6" y="14" width="20" height="15" rx="3" fill="#28221F"/><path d="M10 14V9a6 6 0 0 1 12 0v5" fill="none" stroke="#28221F" stroke-width="4"/><circle cx="16" cy="21" r="2" fill="#FFF3D6"/></symbol>
    <symbol id="icon-sound" viewBox="0 0 32 32"><path d="M4 12h6l7-6v20l-7-6H4v-8Z" fill="currentColor"/><path d="M21 11c3 3 3 7 0 10M25 7c6 5 6 13 0 18" fill="none" stroke="currentColor" stroke-width="2.5" stroke-linecap="round"/></symbol>
  </defs>
</svg>
